<svg width="120" height="120" viewBox="0 0 120 120" fill="none" xmlns="http://www.w3.org/2000/svg">
<path d="M120 60C120 93.1371 93.1371 120 60 120C26.8629 120 0 93.1371 0 60C0 26.8629 26.8629 0 60 0C93.1371 0 120 26.8629 120 60Z" fill="#242424"/>
<path d="M78.5772 78.323L75.2891 66.941H76.4984L79.1621 76.3391L81.81 66.9489L83.0273 66.941L85.691 76.3391L88.3389 66.941H89.5561L86.2759 78.323H85.1061L82.4186 68.9882L79.747 78.323H78.5772Z" fill="#ffffff"/>
<path d="M67.1187 78.323V66.941H74.2324V68.0555H68.2806V71.9918H73.2839V73.1062H68.2806V77.2085H74.2324V78.323H67.1187Z" fill="#ffffff"/>
<path d="M63.5874 78.323V66.941H64.7493V78.323H63.5874Z" fill="#ffffff"/>
<path d="M56.7813 78.323L52.8608 66.941H54.0702L57.5401 77.003L61.0338 66.941H62.2431L58.3226 78.323H56.7813Z" fill="#ffffff"/>
<path d="M43.8923 78.5601C42.7594 78.5601 41.803 78.3098 41.0231 77.8092C40.2432 77.3033 39.6531 76.6051 39.2526 75.7146C38.8521 74.824 38.6519 73.7965 38.6519 72.6319C38.6519 71.4674 38.8521 70.4398 39.2526 69.5493C39.6531 68.6588 40.2432 67.9632 41.0231 67.4626C41.803 66.9567 42.7594 66.7038 43.8923 66.7038C45.0305 66.7038 45.9869 66.9567 46.7616 67.4626C47.5414 67.9632 48.1316 68.6588 48.5321 69.5493C48.9378 70.4398 49.1407 71.4674 49.1407 72.6319C49.1407 73.7965 48.9378 74.824 48.5321 75.7146C48.1316 76.6051 47.5414 77.3033 46.7616 77.8092C45.9869 78.3098 45.0305 78.5601 43.8923 78.5601ZM43.8923 77.4456C44.7829 77.4456 45.5259 77.2427 46.1213 76.837C46.7168 76.4312 47.162 75.8674 47.4571 75.1455C47.7575 74.4183 47.9077 73.5804 47.9077 72.6319C47.9077 71.6834 47.7575 70.8482 47.4571 70.1263C47.162 69.4044 46.7168 68.8406 46.1213 68.4348C45.5259 68.0291 44.7829 67.8236 43.8923 67.8183C43.0018 67.8183 42.2614 68.0212 41.6713 68.4269C41.0811 68.8327 40.6358 69.3991 40.3354 70.1263C40.0404 70.8482 39.8902 71.6834 39.8849 72.6319C39.8796 73.5804 40.0246 74.4157 40.3196 75.1376C40.62 75.8542 41.0679 76.418 41.6634 76.8291C42.2588 77.2348 43.0018 77.4403 43.8923 77.4456Z" fill="#ffffff"/>
<path d="M32.8791 78.323V68.0555H28.9033V66.941H38.0169V68.0555H34.041V78.323H32.8791Z" fill="#ffffff"/>
<path d="M74.528 54.8477C73.7271 54.8477 73.0051 54.708 72.3623 54.4287C71.7194 54.1494 71.1714 53.7516 70.7182 53.2352C70.2703 52.7188 69.9278 52.097 69.6906 51.3698C69.4535 50.6374 69.335 49.8206 69.335 48.9195C69.335 47.7286 69.5405 46.6905 69.9515 45.8053C70.3678 44.9147 70.9632 44.2244 71.7378 43.7344C72.5124 43.2443 73.4425 42.9993 74.528 42.9993C75.74 42.9993 76.7254 43.2838 77.4842 43.8529C78.2483 44.4168 78.7805 45.1756 79.0808 46.1293L77.911 46.4139C77.6633 45.7183 77.255 45.1624 76.6859 44.7461C76.122 44.3298 75.4186 44.1217 74.5754 44.1217C73.6849 44.1164 72.9445 44.3166 72.3544 44.7224C71.7642 45.1229 71.3189 45.6867 71.0186 46.4139C70.7235 47.1358 70.5733 47.971 70.568 48.9195C70.5627 49.868 70.7077 50.7032 71.0027 51.4251C71.3031 52.1418 71.751 52.7056 72.3465 53.1166C72.9419 53.5224 73.6849 53.7279 74.5754 53.7332C75.3922 53.7332 76.0667 53.5751 76.5989 53.2589C77.1311 52.9427 77.5342 52.4896 77.8083 51.8994C78.0875 51.3092 78.2456 50.611 78.2825 49.8048H75.6583V48.8089H79.4998C79.5156 48.93 79.5235 49.0591 79.5235 49.1962C79.5287 49.3279 79.5314 49.4227 79.5314 49.4807C79.5314 50.5083 79.3469 51.4278 78.9781 52.2393C78.6092 53.0455 78.0533 53.6831 77.3103 54.1521C76.5726 54.6158 75.6451 54.8477 74.528 54.8477Z" fill="#ffffff"/>
<path d="M59.4663 54.6104L63.3868 43.2284H64.9281L68.8486 54.6104H67.6392L63.9164 43.8765H64.3748L60.6757 54.6104H59.4663ZM61.2131 51.8519V50.7611H67.0939V51.8519H61.2131Z" fill="#ffffff"/>
<path d="M50.2837 54.6104V43.2284H54.6784C54.7891 43.2284 54.9129 43.2337 55.0499 43.2442C55.1922 43.2495 55.3345 43.2653 55.4767 43.2916C56.0722 43.3812 56.5754 43.5894 56.9864 43.9161C57.4027 44.2375 57.7163 44.6432 57.927 45.1333C58.1431 45.6234 58.2511 46.1661 58.2511 46.7616C58.2511 47.6205 58.0245 48.3661 57.5714 48.9985C57.1182 49.6308 56.47 50.0286 55.6269 50.192L55.2238 50.2868H51.4456V54.6104H50.2837ZM57.1761 54.6104L54.9314 49.9786L56.0458 49.5517L58.512 54.6104H57.1761ZM51.4456 49.1802H54.6468C54.7417 49.1802 54.8523 49.175 54.9788 49.1644C55.1052 49.1539 55.2291 49.1355 55.3503 49.1091C55.7402 49.0248 56.059 48.8641 56.3067 48.627C56.5596 48.3898 56.7467 48.1079 56.8679 47.7812C56.9943 47.4545 57.0576 47.1146 57.0576 46.7616C57.0576 46.4085 56.9943 46.0686 56.8679 45.7419C56.7467 45.41 56.5596 45.1254 56.3067 44.8883C56.059 44.6511 55.7402 44.4904 55.3503 44.4061C55.2291 44.3798 55.1052 44.364 54.9788 44.3587C54.8523 44.3482 54.7417 44.3429 54.6468 44.3429H51.4456V49.1802Z" fill="#ffffff"/>
<path d="M39.6626 54.6104V43.2284H43.1167C43.2379 43.2284 43.4434 43.231 43.7333 43.2363C44.0283 43.2416 44.3103 43.2626 44.579 43.2995C45.4432 43.4207 46.1651 43.7422 46.7448 44.2638C47.3244 44.7855 47.7591 45.4495 48.0489 46.2557C48.3388 47.0619 48.4837 47.9498 48.4837 48.9194C48.4837 49.889 48.3388 50.7769 48.0489 51.5831C47.7591 52.3894 47.3244 53.0533 46.7448 53.575C46.1651 54.0967 45.4432 54.4181 44.579 54.5393C44.3155 54.5709 44.0336 54.592 43.7333 54.6025C43.4329 54.6078 43.2274 54.6104 43.1167 54.6104H39.6626ZM40.864 53.4959H43.1167C43.3328 53.4959 43.5646 53.4907 43.8123 53.4801C44.0652 53.4643 44.2813 53.438 44.4604 53.4011C45.1244 53.2852 45.6592 53.0164 46.065 52.5949C46.476 52.1733 46.7764 51.6464 46.9661 51.014C47.1558 50.3764 47.2506 49.6782 47.2506 48.9194C47.2506 48.1553 47.1558 47.4545 46.9661 46.8169C46.7764 46.1793 46.476 45.6523 46.065 45.2361C45.654 44.8198 45.1191 44.5537 44.4604 44.4377C44.2813 44.4008 44.0626 44.3771 43.8044 44.3666C43.5515 44.3508 43.3222 44.3429 43.1167 44.3429H40.864V53.4959Z" fill="#ffffff"/>
</svg>